<svg xmlns="http://www.w3.org/2000/svg" preserveAspectRatio="none" width="37.5" height="38" viewBox="0 0 37.5 38"><defs><style>.cls-1{fill:none;}.cls-2{fill:#fff;}</style></defs><title>icon_w_catalog</title><g id="レイヤー_2" data-name="レイヤー 2"><g id="レイヤー"><rect class="cls-1" width="37.5" height="38"/><path class="cls-2" d="M19.26,33a7.91,7.91,0,0,1-4.83-1.86H1.8A.77.77,0,0,1,1,30.37V11.58a.77.77,0,1,1,1.53,0v18H14.72a.77.77,0,0,1,.54.22,5.53,5.53,0,0,0,7.81,0,.77.77,0,0,1,.52-.2H35.4v-18a.77.77,0,1,1,1.53,0V30.37a.77.77,0,0,1-.77.77H23.86A7,7,0,0,1,19.26,33Z"/><path class="cls-2" d="M9.29,19.41A3,3,0,1,0,14.16,17l-1.24,2.21a.53.53,0,1,1-.93-.52l1.21-2.17a3,3,0,0,0-.86-.14A3,3,0,0,0,9.29,19.41Z"/><path class="cls-2" d="M25.47,16.37a3,3,0,0,0-2.87,2h3a.53.53,0,1,1,0,1.07H22.43a3,3,0,1,0,3-3.1Z"/><polygon class="cls-2" points="16.63 14.76 19.7 17.93 21.37 14.76 16.63 14.76"/><path class="cls-2" d="M19,8.92S13.07,2.73,4.26,8.38v20s8.25-3.84,14.72.32c6.47-4.16,14.72-.32,14.72-.32v-20C24.9,2.73,19,8.92,19,8.92Zm6.49,14.49a4,4,0,0,1-4-3.94h-1.7a.53.53,0,0,1-.53-.46l-3.95-4.08-.68,1.21a4,4,0,1,1-2.29-.73,4,4,0,0,1,1.33.24L16.26,11a.53.53,0,0,1,.47-.27h2.44a.53.53,0,1,1,0,1.07H17l-1,1.86h5.94l.18-.33h-.8a.53.53,0,1,1,0-1.07h3.05a.53.53,0,1,1,0,1.07h-1v0l-2.64,5h.94a4,4,0,1,1,3.86,5Z"/></g></g></svg>