<svg xmlns="http://www.w3.org/2000/svg" preserveAspectRatio="none" width="40" height="38" viewBox="0 0 40 38"><defs><style>.cls-1{fill:none;}.cls-2{fill:#fff;}</style></defs><title>icon_w_search</title><g id="レイヤー_2" data-name="レイヤー 2"><g id="レイヤー"><rect class="cls-1" width="40" height="38"/><path class="cls-2" d="M20.67,15.75a3.32,3.32,0,0,0-3.2,2.47h-.78l2.19-4.17v0h.87a.44.44,0,0,0,0-.89H17.21a.44.44,0,0,0,0,.89h.67l-.15.28H12.81l.86-1.54h1.77a.44.44,0,1,0,0-.89h-2a.44.44,0,0,0-.39.23L9.48,18.45a.44.44,0,1,0,.77.43l2-3.54,3.28,3.38a.44.44,0,0,0,.44.38h1.41a3.31,3.31,0,1,0,3.31-3.36Zm-3.4-.55-1.39,2.64L13.33,15.2Zm3.4,6.39a2.53,2.53,0,0,1-2.53-2.48h2.62a.44.44,0,0,0,0-.89H18.29a2.53,2.53,0,1,1,2.38,3.37Z"/><path class="cls-2" d="M9.77,15.75a3.32,3.32,0,1,0,3.32,3.32A3.32,3.32,0,0,0,9.77,15.75Zm0,5.84a2.53,2.53,0,1,1,2.53-2.53A2.53,2.53,0,0,1,9.77,21.59Z"/><path class="cls-2" d="M15.57,31.65a14,14,0,1,1,10.78-5A14,14,0,0,1,15.57,31.65Zm0-25.8q-.53,0-1.07,0a11.73,11.73,0,1,0,1.07,0Z"/><path class="cls-2" d="M38,32l-9.23-6.7c-1.79-1.49-2.92-.9-3.55-.14l-.43.51c-.63.76-1,2,.77,3.47l8.38,7.72,0,0a2.84,2.84,0,0,0,4-.36l.43-.51a2.84,2.84,0,0,0-.36-4Z"/><path class="cls-2" d="M27.75,6.21a.57.57,0,0,1-.5-.85L30,.52a.57.57,0,0,1,1,.56L28.25,5.92A.57.57,0,0,1,27.75,6.21Z"/><path class="cls-2" d="M30.46,8.78a.57.57,0,0,1-.28-1.07l5.13-2.85a.57.57,0,1,1,.55,1L30.74,8.71A.56.56,0,0,1,30.46,8.78Z"/><path class="cls-2" d="M36.73,12.77h-.06l-5.13-.57a.57.57,0,0,1-.5-.63.58.58,0,0,1,.63-.5l5.13.57a.57.57,0,0,1-.06,1.14Z"/></g></g></svg>