<?xml version="1.0" encoding="UTF-8"?>
<!-- Generator: Adobe Illustrator 25.3.1, SVG Export Plug-In . SVG Version: 6.00 Build 0)  -->
<svg version="1.1" id="レイヤー_1" xmlns="http://www.w3.org/2000/svg" xmlns:xlink="http://www.w3.org/1999/xlink" x="0px" y="0px" viewBox="0 0 24 23.9" style="enable-background:new 0 0 24 23.9;" xml:space="preserve">
<style type="text/css">
	.st0{fill:none;}
	.st1{fill:#FFFFFF;}
</style>
<rect class="st0" width="24" height="23.9"/>
<path id="パス_125" class="st1" d="M22.8,6.5c-0.3-1-1-1.7-2-2C19.1,4,12,4,12,4S4.9,4,3.2,4.4c-1,0.3-1.7,1-2,2  c-0.6,3.6-0.6,7.3,0,10.9c0.3,1,1,1.7,2,2c1.8,0.5,8.8,0.5,8.8,0.5s7.1,0,8.8-0.5c1-0.3,1.7-1,2-2C23.5,13.8,23.5,10.1,22.8,6.5  L22.8,6.5z M9.7,15.3V8.6l5.9,3.4L9.7,15.3z"/>
</svg>