<?xml version="1.0" encoding="UTF-8"?>
<!-- Generator: Adobe Illustrator 25.3.1, SVG Export Plug-In . SVG Version: 6.00 Build 0)  -->
<svg version="1.1" id="レイヤー_1" xmlns="http://www.w3.org/2000/svg" xmlns:xlink="http://www.w3.org/1999/xlink" x="0px" y="0px" viewBox="0 0 24 23.9" style="enable-background:new 0 0 24 23.9;" xml:space="preserve">
<style type="text/css">
	.st0{fill:#FDFDFE;}
</style>
<g id="グループ_22" transform="translate(-106.943 -106.293)">
	<path id="パス_123" class="st0" d="M130.9,118.3c0-6.6-5.4-12-12-12c-6.6,0-12,5.4-12,12c0,5.9,4.3,10.9,10.1,11.9v-8.4h-3v-3.5   h3v-2.6c0-3,1.8-4.7,4.5-4.7c0.9,0,1.8,0.1,2.7,0.2v3h-1.5c-0.9-0.1-1.8,0.5-1.9,1.5c0,0.1,0,0.3,0,0.4v2.3h3.3l-0.5,3.5h-2.8v8.4   C126.6,129.2,130.9,124.2,130.9,118.3z"/>
</g>
</svg>