<svg xmlns="http://www.w3.org/2000/svg" preserveAspectRatio="none" width="53" height="38" viewBox="0 0 53 38"><defs><style>.cls-1{fill:#fff;}.cls-2{fill:none;}</style></defs><title>icon_w_ride</title><g id="レイヤー_2" data-name="レイヤー 2"><g id="レイヤー"><path class="cls-1" d="M16.43,7.4A2.47,2.47,0,1,0,14,9.87,2.47,2.47,0,0,0,16.43,7.4Zm0,15.22h0l0,.11,2.18,6.49-.88.79a1.62,1.62,0,1,0,2.16,2.41l1.66-1.49a1.62,1.62,0,0,0,.51-1.51h0l-2.28-6.76,4.94-3.27A2.47,2.47,0,0,0,25,15.89L19.68,10a2.47,2.47,0,0,0-3.33-.32l0,0-.12.16a2.47,2.47,0,0,0-.54.69l-3.43,4.39L8.17,13.41A1.4,1.4,0,0,0,7.23,16l5,1.8a1.4,1.4,0,0,0,1.63-.52l2.68-3.44,3.85,4.33L16.9,21A1.62,1.62,0,0,0,16.43,22.62Zm6.47,3.67A7.34,7.34,0,1,0,30.24,19,7.34,7.34,0,0,0,22.91,26.29Zm1.74,0a5.59,5.59,0,1,1,5.59,5.59A5.6,5.6,0,0,1,24.65,26.29Zm-23.94,0A7.34,7.34,0,1,0,8.05,19,7.34,7.34,0,0,0,.71,26.29Zm1.74,0a5.59,5.59,0,1,1,5.59,5.59A5.6,5.6,0,0,1,2.46,26.29Z"/><path class="cls-1" d="M51.16,23.26H40.89a.56.56,0,1,1,0-1.11H51.16a.56.56,0,0,1,0,1.11Z"/><path class="cls-1" d="M48.94,26.86H40.89a.56.56,0,1,1,0-1.11h8.05a.56.56,0,1,1,0,1.11Z"/><path class="cls-1" d="M46.72,30.47H40.89a.56.56,0,1,1,0-1.11h5.83a.56.56,0,1,1,0,1.11Z"/><rect class="cls-2" width="53" height="38"/></g></g></svg>