<?xml version="1.0" encoding="UTF-8"?>
<!-- Generator: Adobe Illustrator 25.3.1, SVG Export Plug-In . SVG Version: 6.00 Build 0)  -->
<svg version="1.1" id="レイヤー_1" xmlns="http://www.w3.org/2000/svg" xmlns:xlink="http://www.w3.org/1999/xlink" x="0px" y="0px" viewBox="0 0 24 23.9" style="enable-background:new 0 0 24 23.9;" xml:space="preserve">
<style type="text/css">
	.st0{fill:none;}
	.st1{fill:#FFFFFF;}
</style>
<rect class="st0" width="24" height="23.9"/>
<g>
	<path id="パス_126" class="st1" d="M12,2.8c3,0,3.3,0,4.5,0.1c0.7,0,1.4,0.1,2.1,0.4c1,0.4,1.8,1.1,2.1,2.1   C21,6,21.1,6.7,21.1,7.4c0.1,1.2,0.1,1.5,0.1,4.5s0,3.3-0.1,4.5c0,0.7-0.1,1.4-0.4,2.1c-0.4,1-1.1,1.8-2.1,2.1   c-0.7,0.2-1.4,0.4-2.1,0.4c-1.2,0.1-1.5,0.1-4.5,0.1s-3.3,0-4.5-0.1c-0.7,0-1.4-0.1-2.1-0.4c-1-0.4-1.7-1.1-2.1-2.1   c-0.2-0.7-0.4-1.4-0.4-2.1c-0.1-1.2-0.1-1.5-0.1-4.5s0-3.3,0.1-4.5C2.9,6.7,3,6,3.3,5.3c0.4-1,1.1-1.7,2.1-2.1   C6.1,3,6.8,2.8,7.5,2.8C8.7,2.8,9,2.8,12,2.8 M12,0.7c-3,0-3.4,0-4.6,0.1C6.5,0.8,5.5,1,4.7,1.3C3.2,1.9,2,3.1,1.4,4.6   C1.1,5.5,0.9,6.4,0.9,7.3c-0.1,1.2-0.1,1.6-0.1,4.6s0,3.4,0.1,4.6c0,0.9,0.2,1.8,0.5,2.7c0.6,1.5,1.8,2.7,3.3,3.3   c0.9,0.3,1.8,0.5,2.7,0.5c1.2,0.1,1.6,0.1,4.6,0.1s3.4,0,4.6-0.1c0.9,0,1.8-0.2,2.7-0.5c1.5-0.6,2.7-1.8,3.3-3.3   c0.3-0.9,0.5-1.8,0.5-2.7c0.1-1.2,0.1-1.6,0.1-4.6s0-3.4-0.1-4.6c0-0.9-0.2-1.8-0.5-2.7c-0.6-1.5-1.8-2.7-3.3-3.3   c-0.9-0.3-1.8-0.5-2.7-0.5C15.4,0.7,15,0.7,12,0.7L12,0.7z"/>
	<path id="パス_127" class="st1" d="M12,6.2c-3.2,0-5.7,2.6-5.7,5.7c0,3.2,2.6,5.7,5.7,5.7c3.2,0,5.7-2.6,5.7-5.7l0,0   C17.7,8.8,15.2,6.2,12,6.2z M12,15.7c-2.1,0-3.7-1.7-3.7-3.7S9.9,8.2,12,8.2c2.1,0,3.7,1.7,3.7,3.7S14.1,15.7,12,15.7L12,15.7z"/>
	<circle id="楕円形_2" class="st1" cx="18" cy="6" r="1.3"/>
</g>
</svg>