<svg xmlns="http://www.w3.org/2000/svg" width="96.194" height="34.044" viewBox="0 0 96.194 34.044">
  <g id="logo" transform="translate(0 0.038)">
    <path id="パス_1" data-name="パス 1" d="M157.888,58.737c-.175-.394-.656-.437-2.012-.437H143.761L139.3,66.741h12.6a3.5,3.5,0,0,0,3.28-2.231s2.537-4.811,2.537-4.9a1.668,1.668,0,0,0,.175-.569C157.932,59,157.976,58.912,157.888,58.737Zm-6.867,5.642a1.975,1.975,0,0,1-.569.131H144.5l2.056-3.893h5.423c.744,0,.875.044.918.175a.872.872,0,0,1-.087.35s-1.05,2.012-1.531,2.887A.594.594,0,0,1,151.021,64.379Z" transform="translate(-78.375 -32.823)"/>
    <path id="パス_2" data-name="パス 2" d="M67.388,60.618,68.613,58.3H55.754c-2.274,0-2.58.612-2.887,1.137-1.093,2.056-3.237,6.079-3.237,6.079a1.846,1.846,0,0,0-.131.525.622.622,0,0,0,.087.262c.131.175.525.437,1.575.437h12.99l1.181-2.231H54.224l.437-.787h8.747l1.225-2.362H55.886l.394-.744Z" transform="translate(-27.85 -32.823)"/>
    <path id="パス_3" data-name="パス 3" d="M134.3,58.3H129.7l-4.5,8.485h4.636Z" transform="translate(-70.442 -32.823)"/>
    <path id="パス_4" data-name="パス 4" d="M194.944,58.794c-.175-.262-.569-.394-1.618-.394H181.954c-1.749,0-2.012.525-2.362,1.137L175.7,66.885h4.33l1.618-3.062H188.6l-1.618,3.062H191.1l3.849-7.3a.975.975,0,0,0,.087-.394A.393.393,0,0,0,194.944,58.794ZM183.179,60.98a.593.593,0,0,1,.569-.306h5.992c.394,0,.394.219.35.306-.044.044-.481.918-.481.918h-6.954Z" transform="translate(-98.855 -32.879)"/>
    <path id="パス_5" data-name="パス 5" d="M105.35,58.694c-.131-.175-.481-.394-1.531-.394H90.261L85.8,66.785h4.155l3.236-6.123h7.173s.306,0,.219.219c-.087.131-.131.306-.175.35-.044.087-.087.175-.35.175H95.072L93.8,63.811l3.936,2.974h5.336l-3.893-3.018h1.968c1.575-.044,2.012-.306,2.493-1.093,0,0,1.749-3.324,1.749-3.368a.622.622,0,0,0,.087-.262A.582.582,0,0,0,105.35,58.694Z" transform="translate(-48.274 -32.823)"/>
    <path id="パス_6" data-name="パス 6" d="M15.745,58.3l-3.98,4.024L10.628,58.3H5.511a1.441,1.441,0,0,0-1.487.918C3.98,59.262,0,66.785,0,66.785H4.242l3.237-6.123h.875L9.71,65.079H12.6l4.855-4.417h1.137l-3.28,6.123H19.55l3.893-7.348c.394-.918.262-1.093-.918-1.093Z" transform="translate(0 -32.823)"/>
    <g id="グループ_1" data-name="グループ 1" transform="translate(31.589 -0.038)">
      <path id="パス_7" data-name="パス 7" d="M106.642,38.7c.875,0,1.006-.437.306-.962L99.994,32.1a1.971,1.971,0,0,0-2.406.044l-1.837,1.181a2.638,2.638,0,0,1-2.668.306,2.84,2.84,0,0,0-2.58.087l-7.173,4.2c-.787.437-.656.831.219.831h23.093Z" transform="translate(-78.18 -17.826)" fill="#9ecb27" fill-rule="evenodd"/>
      <path id="パス_8" data-name="パス 8" d="M105.717,16.774c1.312,1.312-.612,1.618-1.618.875l-10.366-8a2.183,2.183,0,0,0-2.537.175l-1.924,1.312a2.6,2.6,0,0,1-2.624.262l-.087-.044a2.927,2.927,0,0,0-2.755.044L73.745,17.823c-.831.525-2.187.044-1.137-1.093L88,.372a1.969,1.969,0,0,1,2.406,0Z" transform="translate(-72.226 0.038)" fill="#9ecb27" fill-rule="evenodd"/>
    </g>
  </g>
</svg>
